<svg width="24" height="24" viewBox="0 0 24 24" fill="none" xmlns="http://www.w3.org/2000/svg">
<path fill-rule="evenodd" clip-rule="evenodd" d="M13.788 3.80399C13.332 1.93199 10.668 1.93199 10.212 3.80399C10.1439 4.08529 10.0104 4.34654 9.82227 4.56649C9.63415 4.78643 9.39676 4.95885 9.12941 5.06972C8.86207 5.18058 8.57233 5.22677 8.28376 5.2045C7.9952 5.18224 7.71597 5.09216 7.4688 4.94159C5.8224 3.93839 3.9384 5.82239 4.9416 7.46879C5.5896 8.53199 5.0148 9.91919 3.8052 10.2132C1.932 10.668 1.932 13.3332 3.8052 13.7868C4.08657 13.855 4.34787 13.9886 4.56781 14.1769C4.78776 14.3651 4.96013 14.6027 5.07089 14.8702C5.18165 15.1377 5.22767 15.4275 5.2052 15.7162C5.18274 16.0048 5.09242 16.2841 4.9416 16.5312C3.9384 18.1776 5.8224 20.0616 7.4688 19.0584C7.71593 18.9076 7.99518 18.8173 8.28382 18.7948C8.57246 18.7723 8.86233 18.8183 9.12982 18.9291C9.3973 19.0399 9.63485 19.2122 9.82311 19.4322C10.0114 19.6521 10.145 19.9134 10.2132 20.1948C10.668 22.068 13.3332 22.068 13.7868 20.1948C13.8552 19.9136 13.989 19.6524 14.1773 19.4327C14.3656 19.2129 14.6031 19.0406 14.8705 18.9299C15.1379 18.8192 15.4277 18.7731 15.7162 18.7954C16.0048 18.8177 16.284 18.9078 16.5312 19.0584C18.1776 20.0616 20.0616 18.1776 19.0584 16.5312C18.9079 16.284 18.8177 16.0048 18.7954 15.7162C18.7731 15.4277 18.8192 15.1379 18.9299 14.8705C19.0406 14.6031 19.2129 14.3656 19.4327 14.1773C19.6525 13.989 19.9136 13.8552 20.1948 13.7868C22.068 13.332 22.068 10.6668 20.1948 10.2132C19.9134 10.145 19.6521 10.0114 19.4322 9.82311C19.2122 9.63484 19.0399 9.3973 18.9291 9.12981C18.8184 8.86232 18.7723 8.57246 18.7948 8.28382C18.8173 7.99518 18.9076 7.71592 19.0584 7.46879C20.0616 5.82239 18.1776 3.93839 16.5312 4.94159C16.2841 5.09241 16.0048 5.18273 15.7162 5.2052C15.4275 5.22766 15.1377 5.18164 14.8702 5.07088C14.6027 4.96012 14.3651 4.78775 14.1769 4.56781C13.9886 4.34786 13.855 4.08657 13.7868 3.80519L13.788 3.80399ZM12 15.6C12.9548 15.6 13.8705 15.2207 14.5456 14.5456C15.2207 13.8704 15.6 12.9548 15.6 12C15.6 11.0452 15.2207 10.1295 14.5456 9.45441C13.8705 8.77928 12.9548 8.39999 12 8.39999C11.0452 8.39999 10.1295 8.77928 9.45442 9.45441C8.77928 10.1295 8.4 11.0452 8.4 12C8.4 12.9548 8.77928 13.8704 9.45442 14.5456C10.1295 15.2207 11.0452 15.6 12 15.6Z" fill="#228FFD"/>
</svg>
