<svg width="24" height="24" viewBox="0 0 24 24" fill="none" xmlns="http://www.w3.org/2000/svg">
<path d="M12.8484 2.75161C12.6234 2.52665 12.3182 2.40027 12 2.40027C11.6818 2.40027 11.3766 2.52665 11.1516 2.75161L2.75159 11.1516C2.533 11.3779 2.41205 11.6811 2.41478 11.9957C2.41751 12.3103 2.54372 12.6113 2.76621 12.8338C2.9887 13.0563 3.28967 13.1825 3.60431 13.1852C3.91894 13.188 4.22207 13.067 4.44839 12.8484L4.79999 12.4968V20.4C4.79999 20.7183 4.92642 21.0235 5.15146 21.2485C5.3765 21.4736 5.68173 21.6 5.99999 21.6H8.39999C8.71825 21.6 9.02347 21.4736 9.24852 21.2485C9.47356 21.0235 9.59999 20.7183 9.59999 20.4V18C9.59999 17.6818 9.72642 17.3765 9.95146 17.1515C10.1765 16.9264 10.4817 16.8 10.8 16.8H13.2C13.5182 16.8 13.8235 16.9264 14.0485 17.1515C14.2736 17.3765 14.4 17.6818 14.4 18V20.4C14.4 20.7183 14.5264 21.0235 14.7515 21.2485C14.9765 21.4736 15.2817 21.6 15.6 21.6H18C18.3182 21.6 18.6235 21.4736 18.8485 21.2485C19.0736 21.0235 19.2 20.7183 19.2 20.4V12.4968L19.5516 12.8484C19.7779 13.067 20.081 13.188 20.3957 13.1852C20.7103 13.1825 21.0113 13.0563 21.2338 12.8338C21.4563 12.6113 21.5825 12.3103 21.5852 11.9957C21.5879 11.6811 21.467 11.3779 21.2484 11.1516L12.8484 2.75161Z" fill="#868AA5"/>
</svg>
