<svg width="24" height="24" viewBox="0 0 24 24" fill="none" xmlns="http://www.w3.org/2000/svg">
<path fill-rule="evenodd" clip-rule="evenodd" d="M16.3911 4.2032C15.7012 4.00337 14.9764 3.95451 14.2659 4.05997C13.5554 4.16542 12.876 4.42271 12.2739 4.81431C11.6718 5.20592 11.1611 5.72265 10.7767 6.32934C10.3922 6.93602 10.1429 7.61842 10.0459 8.33009C9.94881 9.04175 10.0062 9.76597 10.2142 10.4535C10.3209 10.8064 10.2248 11.1894 9.96411 11.4501L4.00011 17.4141L4 20H6V19C6 18.4477 6.44772 18 7 18H8V17C8 16.4477 8.44772 16 9 16H10.5858L12.5499 14.0359C12.8109 13.7749 13.1944 13.6789 13.5475 13.7861C14.2948 14.013 15.0848 14.0617 15.8543 13.9282C16.6238 13.7948 17.3514 13.4829 17.9786 13.0177C18.6059 12.5524 19.1155 11.9467 19.4665 11.2491C19.8174 10.5516 20.0001 9.78171 20 9.00096M10 18V19C10 19.5523 9.55228 20 9 20H8V21C8 21.5523 7.55228 22 7 22H4C3.46957 22 2.96086 21.7893 2.58579 21.4142C2.21071 21.0391 2 20.5304 2 20V17.414C2.00011 16.8837 2.21086 16.3749 2.58589 15.9999C2.58586 15.9999 2.58593 15.9999 2.58589 15.9999L8.14803 10.4378C7.9849 9.65717 7.95604 8.85292 8.06422 8.05981C8.20011 7.06348 8.54906 6.10812 9.08732 5.25876C9.62559 4.40939 10.3405 3.68597 11.1835 3.13772C12.0264 2.58948 12.9776 2.22928 13.9723 2.08164C14.9669 1.93401 15.9817 2.0024 16.9476 2.28217C17.9134 2.56194 18.8077 3.04651 19.5694 3.70291C20.3312 4.35931 20.9426 5.17213 21.362 6.08603C21.7814 6.99994 21.999 7.99348 22 8.99904C22.0003 10.0924 21.7445 11.1713 21.2531 12.148C20.7617 13.1247 20.0483 13.9727 19.1701 14.6241C18.2919 15.2754 17.2734 15.712 16.1961 15.8988C15.3211 16.0505 14.4272 16.0341 13.5618 15.8524L11.7071 17.7071C11.5196 17.8946 11.2652 18 11 18H10ZM16.3911 4.2032C17.081 4.40304 17.7198 4.74916 18.2639 5.21802L16.3911 4.2032ZM18.2639 5.21802C18.808 5.68687 19.2447 6.26746 19.5443 6.92025L18.2639 5.21802ZM14 7C14 6.44771 14.4477 6 15 6C15.7956 6 16.5587 6.31607 17.1213 6.87868C17.6839 7.44129 18 8.20435 18 9C18 9.55228 17.5523 10 17 10C16.4477 10 16 9.55228 16 9C16 8.73478 15.8946 8.48043 15.7071 8.29289C15.5196 8.10536 15.2652 8 15 8C14.4477 8 14 7.55228 14 7ZM19.5443 6.92025C19.8438 7.57283 19.9992 8.28294 20 9.00096L19.5443 6.92025Z" fill="#2F3367"/>
</svg>
