<svg width="24" height="24" viewBox="0 0 24 24" fill="none" xmlns="http://www.w3.org/2000/svg">
<path fill-rule="evenodd" clip-rule="evenodd" d="M9.59999 4.8C8.32695 4.8 7.10606 5.30571 6.20588 6.20589C5.30571 7.10606 4.79999 8.32696 4.79999 9.6C4.79999 10.873 5.30571 12.0939 6.20588 12.9941C7.10606 13.8943 8.32695 14.4 9.59999 14.4C10.873 14.4 12.0939 13.8943 12.9941 12.9941C13.8943 12.0939 14.4 10.873 14.4 9.6C14.4 8.32696 13.8943 7.10606 12.9941 6.20589C12.0939 5.30571 10.873 4.8 9.59999 4.8ZM2.39999 9.6C2.39985 8.46684 2.66716 7.34965 3.1802 6.33929C3.69323 5.32892 4.4375 4.45392 5.35247 3.78543C6.26744 3.11694 7.32727 2.67385 8.44577 2.4922C9.56427 2.31054 10.7099 2.39545 11.7894 2.74002C12.8688 3.08459 13.8518 3.67908 14.6582 4.47515C15.4646 5.27123 16.0717 6.2464 16.4302 7.32136C16.7887 8.39632 16.8884 9.54071 16.7212 10.6615C16.554 11.7822 16.1246 12.8477 15.468 13.7712L21.2484 19.5516C21.467 19.7779 21.5879 20.081 21.5852 20.3957C21.5825 20.7103 21.4563 21.0113 21.2338 21.2338C21.0113 21.4563 20.7103 21.5825 20.3957 21.5852C20.081 21.5879 19.7779 21.467 19.5516 21.2484L13.7724 15.4692C12.6952 16.2351 11.428 16.6898 10.1096 16.7833C8.7912 16.8769 7.47248 16.6057 6.29795 15.9996C5.12343 15.3934 4.13842 14.4756 3.45086 13.3468C2.76331 12.218 2.39974 10.9217 2.39999 9.6Z" fill="black"/>
</svg>
