<svg width="24" height="24" viewBox="0 0 24 24" fill="none" xmlns="http://www.w3.org/2000/svg">
<path d="M10.8 7.19998C10.8 8.15476 10.4207 9.07043 9.74558 9.74556C9.07045 10.4207 8.15478 10.8 7.2 10.8C6.24522 10.8 5.32954 10.4207 4.65441 9.74556C3.97928 9.07043 3.6 8.15476 3.6 7.19998C3.6 6.2452 3.97928 5.32952 4.65441 4.65439C5.32954 3.97926 6.24522 3.59998 7.2 3.59998C8.15478 3.59998 9.07045 3.97926 9.74558 4.65439C10.4207 5.32952 10.8 6.2452 10.8 7.19998ZM20.4 7.19998C20.4 7.67273 20.3069 8.14086 20.126 8.57764C19.945 9.01441 19.6799 9.41127 19.3456 9.74556C19.0113 10.0799 18.6144 10.345 18.1777 10.5259C17.7409 10.7069 17.2728 10.8 16.8 10.8C16.3272 10.8 15.8591 10.7069 15.4223 10.5259C14.9856 10.345 14.5887 10.0799 14.2544 9.74556C13.9201 9.41127 13.6549 9.01441 13.474 8.57764C13.2931 8.14086 13.2 7.67273 13.2 7.19998C13.2 6.2452 13.5793 5.32952 14.2544 4.65439C14.9295 3.97926 15.8452 3.59998 16.8 3.59998C17.7548 3.59998 18.6705 3.97926 19.3456 4.65439C20.0207 5.32952 20.4 6.2452 20.4 7.19998ZM15.516 20.4C15.5712 20.0076 15.6 19.608 15.6 19.2C15.6028 17.3146 14.9685 15.4836 13.8 14.004C14.7121 13.4774 15.7468 13.2001 16.8 13.2001C17.8532 13.2001 18.8878 13.4773 19.7999 14.0039C20.712 14.5305 21.4695 15.2879 21.9961 16.2C22.5227 17.1121 22.8 18.1468 22.8 19.2V20.4H15.516ZM7.2 13.2C8.7913 13.2 10.3174 13.8321 11.4426 14.9573C12.5679 16.0826 13.2 17.6087 13.2 19.2V20.4H1.2V19.2C1.2 17.6087 1.83214 16.0826 2.95736 14.9573C4.08257 13.8321 5.6087 13.2 7.2 13.2Z" fill="black"/>
</svg>
